<?xml version="1.0"?>
<svg xmlns="http://www.w3.org/2000/svg" viewBox="0 0 512 512" width="512" height="512"><g id="_22-_Refund" data-name="22- Refund"><g id="filled"><path d="M316,240a44.049,44.049,0,0,0-44-44H240a20,20,0,0,1,0-40h40a12.013,12.013,0,0,1,12,12,12,12,0,0,0,24,0,36.04,36.04,0,0,0-36-36H268V112a12,12,0,0,0-24,0v20h-4a44,44,0,0,0,0,88h32a20,20,0,0,1,0,40H232a12.013,12.013,0,0,1-12-12,12,12,0,0,0-24,0,36.04,36.04,0,0,0,36,36h12v20a12,12,0,0,0,24,0V284h4A44.049,44.049,0,0,0,316,240Z"/><path d="M447.775,277.7A202.9,202.9,0,0,0,460,208C460,95.514,368.486,4,256,4S52,95.514,52,208s91.514,204,204,204c2.386,0,4.774-.054,7.158-.136A124,124,0,1,0,447.775,277.7ZM256,388c-99.252,0-180-80.748-180-180S156.748,28,256,28s180,80.748,180,180a179.125,179.125,0,0,1-10.013,59.323,123,123,0,0,0-23.365-5.925A154.647,154.647,0,0,0,412,208c0-86.019-69.981-156-156-156S100,121.981,100,208s69.981,156,156,156q2.82,0,5.638-.1A124.3,124.3,0,0,0,260,384c0,1.323.028,2.641.07,3.954Q258.036,388,256,388Zm12.3-48.586c-4.066.375-8.176.586-12.3.586-72.785,0-132-59.215-132-132S183.215,76,256,76s132,59.215,132,132a130.609,130.609,0,0,1-10.72,52.184A124.251,124.251,0,0,0,268.3,339.414ZM384,484A100,100,0,1,1,484,384,100.113,100.113,0,0,1,384,484Z"/><path d="M416,420H360a12.013,12.013,0,0,1-12-12V376a12.013,12.013,0,0,1,12-12h27.029l-11.514,11.515a12,12,0,1,0,16.97,16.97l32-32a12,12,0,0,0,0-16.97l-32-32a12,12,0,0,0-16.97,16.97L387.029,340H360a36.04,36.04,0,0,0-36,36v32a36.04,36.04,0,0,0,36,36h56a12,12,0,0,0,0-24Z"/></g></g></svg>
