<?xml version="1.0"?>
<svg xmlns="http://www.w3.org/2000/svg" id="outline" viewBox="0 0 512 512" width="512" height="512"><path d="M32,96H96v16a16.02085,16.02085,0,0,0,16,16H272a16.02085,16.02085,0,0,0,16-16V96h64V200h16V96a16.02085,16.02085,0,0,0-16-16H282.07129a15.77035,15.77035,0,0,0-1.19629-1.03125l-20.4375-13.625A8.00771,8.00771,0,0,0,256,64H240V52a16.04729,16.04729,0,0,0-6.40625-12.79688l-26.65625-20A16.11552,16.11552,0,0,0,197.33594,16H186.66406a16.07518,16.07518,0,0,0-9.59375,3.20312L150.41406,39.19531A16.05841,16.05841,0,0,0,144,52V64H128a8.00771,8.00771,0,0,0-4.4375,1.34375l-20.4375,13.625A15.77035,15.77035,0,0,0,101.92871,80H32A16.02085,16.02085,0,0,0,16,96V480a16.02085,16.02085,0,0,0,16,16H312V480H32Zm80-3.71875L130.42188,80H152a7.99539,7.99539,0,0,0,8-8V52l26.66406-20h10.67188L224,52V72a7.99539,7.99539,0,0,0,8,8h21.57812L272,92.28125V112l-160,.01562Z"/><circle cx="192" cy="56" r="8"/><path d="M130.875,297.85156l-19.34424,16.12012A15.79119,15.79119,0,0,0,104,312H72a16.02085,16.02085,0,0,0-16,16v32a16.02085,16.02085,0,0,0,16,16h32a16.02085,16.02085,0,0,0,16-16V328c0-.07812-.022-.15039-.02295-.228L141.125,310.14844ZM104,360H72V328H94.69678L82.875,337.85156l10.25,12.29688L104,341.08594Z"/><path d="M130.875,385.85156l-19.34424,16.12012A15.79119,15.79119,0,0,0,104,400H72a16.02085,16.02085,0,0,0-16,16v32a16.02085,16.02085,0,0,0,16,16h32a16.02085,16.02085,0,0,0,16-16V416c0-.07812-.022-.15039-.02295-.228L141.125,398.14844ZM104,448H72V416H94.69678L82.875,425.85156l10.25,12.29688L104,429.08594Z"/><rect x="168" y="320" width="16" height="16"/><rect x="200" y="320" width="104" height="16"/><rect x="152" y="352" width="56" height="16"/><rect x="224" y="352" width="80" height="16"/><rect x="168" y="408" width="16" height="16"/><rect x="200" y="408" width="112" height="16"/><rect x="152" y="440" width="56" height="16"/><rect x="224" y="440" width="88" height="16"/><path d="M328,200V168a16.02085,16.02085,0,0,0-16-16H72a16.02085,16.02085,0,0,0-16,16v96a16.02085,16.02085,0,0,0,16,16H264V264H152V216H272V200H152V168H312v32ZM136,264H72V216h64ZM72,200V168h64v32Z"/><path d="M495.5625,309.39844a7.99629,7.99629,0,0,0-4.125-4.625L456,287.89844V273.28906a24.0689,24.0689,0,0,0-12.09375-20.84375l-41.22656-23.55469a23.8759,23.8759,0,0,0-20.82031-1.45312l-28.709,11.48486L323.4375,224.77344a7.90536,7.90536,0,0,0-5.96875-.35938l-24,8a7.99315,7.99315,0,0,0-5.05469,10.11719l8,24a7.994,7.994,0,0,0,4.14844,4.69531l29.96338,14.26758A23.71272,23.71272,0,0,0,328,296v54.10938a16.14018,16.14018,0,0,0,1.6875,7.15624L344,385.89062V496h16V385.89062a16.14018,16.14018,0,0,0-1.6875-7.15624L344,350.10938V296a8,8,0,0,1,16,0v27.3125l26.34375,26.34375,11.3125-11.3125L376,316.6875v-9.53809l64,30.47608v7.95263a39.52769,39.52769,0,0,1-6.65625,21.98438A55.49954,55.49954,0,0,0,424,398.42188V496h16V398.42188a39.52769,39.52769,0,0,1,6.65625-21.98438A55.49954,55.49954,0,0,0,456,345.57812v-.33349l12.5625,5.98193a8.00806,8.00806,0,0,0,10.59375-3.64844l16-32A7.97885,7.97885,0,0,0,495.5625,309.39844ZM387.79688,242.29688a8.01072,8.01072,0,0,1,6.94531.48437l41.22656,23.55469A8.0305,8.0305,0,0,1,440,273.28906v6.99024l-67.18066-31.99073Zm80.55468,91.10937-93.562-44.56006a23.75878,23.75878,0,0,0-31.69141-15.0918l-32.58252-15.5122-4.39843-13.17969,13.35156-4.45312,157.72656,75.10937Z"/></svg>
